<?xml version="1.0" encoding="UTF-8"?>
<svg width="604px" height="671px" viewBox="0 0 604 671" version="1.1" xmlns="http://www.w3.org/2000/svg" xmlns:xlink="http://www.w3.org/1999/xlink">
    <!-- Generator: Sketch 51.3 (57544) - http://www.bohemiancoding.com/sketch -->
    <title>Group</title>
    <desc>Created with Sketch.</desc>
    <defs>
        <linearGradient x1="50%" y1="0%" x2="50%" y2="100%" id="linearGradient-1">
            <stop stop-color="#FFBD00" offset="0%"></stop>
            <stop stop-color="#FC0C00" offset="100%"></stop>
        </linearGradient>
        <polygon id="path-2" points="291.071429 0 0 103.771392 44.3954273 488.538209 291.071429 625.128866 537.74743 488.538209 582.142857 103.771392"></polygon>
        <linearGradient x1="50%" y1="0.553197254%" x2="50%" y2="100%" id="linearGradient-4">
            <stop stop-color="#FC0200" offset="0%"></stop>
            <stop stop-color="#FFBD00" offset="100%"></stop>
        </linearGradient>
    </defs>
    <g id="Page-1" stroke="none" stroke-width="1" fill="none" fill-rule="evenodd">
        <g id="Artboard-2" transform="translate(-768.000000, -137.000000)">
            <g id="Group" transform="translate(779.000000, 148.000000)">
                <g id="Group-2">
                    <g id="angular">
                        <g id="Oval-3-+-Oval-3-+-Oval-3-+-Oval-3-+-Oval-3-Mask">
                            <mask id="mask-3" fill="white">
                                <use xlink:href="#path-2"></use>
                            </mask>
                            <use id="Mask" stroke="url(#linearGradient-1)" stroke-width="20" fill-rule="nonzero" xlink:href="#path-2"></use>
                        </g>
                    </g>
                    <path d="M293.170642,67.871134 L110.714286,475.097938 L178.743546,475.097938 L215.422916,383.97899 L370.29137,383.97899 L406.97074,475.097938 L475,475.097938 L293.170642,67.871134 Z M346.465454,327.809776 L239.87583,327.809776 L293.170642,200.180839 L346.465454,327.809776 Z" id="Shape" fill="url(#linearGradient-4)" fill-rule="nonzero"></path>
                </g>
                <path d="M339.048733,581.564658 L339.539578,581.564658 C340.480368,580.051213 341.748371,578.854791 343.343624,577.975357 C344.938877,577.095922 346.759074,576.656212 348.80427,576.656212 C350.68585,576.656212 352.342434,576.962987 353.774071,577.576545 C355.205708,578.190104 356.381679,579.0593 357.302017,580.184157 C358.222355,581.309015 358.917711,582.658824 359.388106,584.233625 C359.858501,585.808426 360.093695,587.557043 360.093695,589.479527 L360.093695,607.702132 L352.056115,607.702132 L352.056115,590.461216 C352.056115,588.293308 351.575501,586.687853 350.614259,585.644803 C349.653017,584.601753 348.252079,584.080236 346.411402,584.080236 C345.306996,584.080236 344.335543,584.31543 343.497013,584.785825 C342.658482,585.25622 341.942674,585.890222 341.349567,586.687848 C340.756461,587.485475 340.306524,588.426251 339.999745,589.510205 C339.692965,590.594158 339.539578,591.749677 339.539578,592.976795 L339.539578,607.702132 L331.501998,607.702132 L331.501998,577.637901 L339.048733,577.637901 L339.048733,581.564658 Z M380.279679,621.936626 C378.152675,621.936626 376.260897,621.660528 374.604289,621.108325 C372.94768,620.556122 371.505838,619.840314 370.278721,618.96088 C369.051603,618.081446 368.02902,617.109992 367.210942,616.04649 C366.392864,614.982988 365.799766,613.919502 365.43163,612.856001 L373.101077,609.788222 C373.673732,611.383475 374.614508,612.6208 375.923433,613.500234 C377.232359,614.379668 378.684426,614.819379 380.279679,614.819379 C382.815722,614.819379 384.819984,614.03199 386.292525,612.457189 C387.765067,610.882388 388.501326,608.683836 388.501326,605.861465 L388.501326,603.775376 L388.010482,603.775376 C387.069691,605.084301 385.832366,606.11711 384.298469,606.873832 C382.764572,607.630555 380.954601,608.00891 378.868501,608.00891 C377.068729,608.00891 375.320112,607.64078 373.622599,606.90451 C371.925087,606.168239 370.42189,605.114979 369.112965,603.744698 C367.804039,602.374416 366.740553,600.728058 365.922475,598.805574 C365.104396,596.88309 364.695363,594.735666 364.695363,592.363239 C364.695363,589.990811 365.104396,587.833162 365.922475,585.890226 C366.740553,583.94729 367.804039,582.290706 369.112965,580.920424 C370.42189,579.550143 371.925087,578.496883 373.622599,577.760612 C375.320112,577.024342 377.068729,576.656212 378.868501,576.656212 C380.954601,576.656212 382.764572,577.034567 384.298469,577.79129 C385.832366,578.548012 387.069691,579.580821 388.010482,580.889746 L388.501326,580.889746 L388.501326,577.637901 L396.170773,577.637901 L396.170773,605.554687 C396.170773,608.09073 395.782191,610.37109 395.005017,612.395834 C394.227843,614.420578 393.143905,616.138517 391.753172,617.549702 C390.362438,618.960887 388.695629,620.044825 386.752692,620.801547 C384.809756,621.55827 382.652107,621.936626 380.279679,621.936626 Z M380.586457,600.768952 C381.568151,600.768952 382.539605,600.584888 383.500847,600.216752 C384.462089,599.848617 385.310833,599.306648 386.047103,598.59083 C386.783374,597.875011 387.376472,596.99559 387.826415,595.95254 C388.276358,594.90949 388.501326,593.713068 388.501326,592.363239 C388.501326,591.013409 388.276358,589.806762 387.826415,588.74326 C387.376472,587.679758 386.783374,586.790111 386.047103,586.074292 C385.310833,585.358474 384.462089,584.816505 383.500847,584.44837 C382.539605,584.080234 381.568151,583.89617 380.586457,583.89617 C379.604763,583.89617 378.643535,584.080234 377.702745,584.44837 C376.761955,584.816505 375.923437,585.3687 375.187167,586.10497 C374.450896,586.841241 373.857798,587.730888 373.407855,588.773938 C372.957912,589.816988 372.732944,591.013409 372.732944,592.363239 C372.732944,593.713068 372.957912,594.90949 373.407855,595.95254 C373.857798,596.99559 374.450896,597.875011 375.187167,598.59083 C375.923437,599.306648 376.761955,599.848617 377.702745,600.216752 C378.643535,600.584888 379.604763,600.768952 380.586457,600.768952 Z M417.461157,608.683822 C415.579577,608.683822 413.779831,608.41795 412.061867,607.886199 C410.343902,607.354448 408.769125,606.556834 407.337487,605.493332 C405.90585,604.42983 404.658299,603.13115 403.594797,601.597253 C402.531295,600.063356 401.692778,598.273836 401.079219,596.22864 L408.871377,593.160861 C409.444032,595.369673 410.446163,597.200096 411.8778,598.652185 C413.309437,600.104274 415.190989,600.830308 417.522513,600.830308 C418.381495,600.830308 419.209787,600.717824 420.007413,600.492852 C420.80504,600.267881 421.520848,599.940654 422.154859,599.511163 C422.788869,599.081672 423.289935,598.539703 423.65807,597.88524 C424.026205,597.230778 424.21027,596.474067 424.21027,595.615084 C424.21027,594.797006 424.067109,594.060746 423.780781,593.406284 C423.494454,592.751821 423.01384,592.138271 422.338925,591.565616 C421.664011,590.992961 420.784589,590.440767 419.700636,589.909016 C418.616682,589.377265 417.277098,588.82507 415.681845,588.252415 L412.9822,587.270726 C411.795987,586.861687 410.599565,586.309492 409.392899,585.614126 C408.186233,584.918759 407.09207,584.080241 406.110376,583.098547 C405.128682,582.116853 404.320842,580.961335 403.686831,579.631957 C403.05282,578.30258 402.735819,576.799383 402.735819,575.122322 C402.735819,573.404358 403.073272,571.798903 403.748186,570.30591 C404.423101,568.812917 405.384329,567.504011 406.631898,566.379153 C407.879468,565.254295 409.372439,564.374874 411.110855,563.740863 C412.849272,563.106853 414.781953,562.789852 416.908957,562.789852 C419.117769,562.789852 421.029998,563.086401 422.645703,563.679508 C424.261408,564.272615 425.631669,565.029326 426.756527,565.949664 C427.881384,566.870002 428.791483,567.882359 429.48685,568.986765 C430.182216,570.091171 430.693508,571.134205 431.020739,572.115899 L423.719426,575.183678 C423.310386,573.95656 422.563901,572.852171 421.479947,571.870477 C420.395993,570.888783 418.913248,570.397943 417.031668,570.397943 C415.231896,570.397943 413.738925,570.817202 412.552711,571.655733 C411.366497,572.494263 410.7734,573.588426 410.7734,574.938256 C410.7734,576.247181 411.346046,577.361796 412.491356,578.282135 C413.636665,579.202473 415.456863,580.09212 417.952002,580.951102 L420.713003,581.871436 C422.471871,582.484994 424.077326,583.190576 425.529415,583.988203 C426.981504,584.785829 428.229055,585.736831 429.272105,586.841237 C430.315155,587.945643 431.11277,589.20342 431.664973,590.614605 C432.217175,592.02579 432.493273,593.651697 432.493273,595.492373 C432.493273,597.782993 432.033111,599.756577 431.112772,601.413186 C430.192434,603.069795 429.016464,604.42983 427.584827,605.493332 C426.15319,606.556834 424.537509,607.354448 422.737736,607.886199 C420.937964,608.41795 419.179122,608.683822 417.461157,608.683822 Z M438.07663,577.637901 L445.623366,577.637901 L445.623366,581.25788 L446.11421,581.25788 C446.850481,579.989858 447.995773,578.905921 449.550122,578.006034 C451.104471,577.106148 453.026927,576.656212 455.317546,576.656212 C457.240031,576.656212 459.070454,577.055019 460.80887,577.852646 C462.547287,578.650272 464.081161,579.754661 465.410538,581.165847 C466.739916,582.577032 467.793176,584.264293 468.57035,586.227681 C469.347525,588.19107 469.736106,590.338493 469.736106,592.670017 C469.736106,595.00154 469.347525,597.148964 468.57035,599.112352 C467.793176,601.07574 466.739916,602.763002 465.410538,604.174187 C464.081161,605.585372 462.547287,606.689761 460.80887,607.487388 C459.070454,608.285014 457.240031,608.683822 455.317546,608.683822 C453.026927,608.683822 451.104471,608.233885 449.550122,607.333999 C447.995773,606.434113 446.850481,605.350175 446.11421,604.082153 L445.623366,604.082153 L446.11421,608.377044 L446.11421,620.954936 L438.07663,620.954936 L438.07663,577.637901 Z M453.660946,601.259797 C454.724448,601.259797 455.736805,601.055281 456.698047,600.646241 C457.659289,600.237202 458.508033,599.664556 459.244303,598.928285 C459.980574,598.192015 460.573672,597.292142 461.023615,596.22864 C461.473558,595.165138 461.698526,593.978942 461.698526,592.670017 C461.698526,591.361091 461.473558,590.174895 461.023615,589.111393 C460.573672,588.047891 459.980574,587.148019 459.244303,586.411748 C458.508033,585.675478 457.659289,585.102831 456.698047,584.693792 C455.736805,584.284753 454.724448,584.080236 453.660946,584.080236 C452.597444,584.080236 451.585087,584.274527 450.623845,584.663114 C449.662603,585.051701 448.813859,585.614122 448.077589,586.350393 C447.341318,587.086663 446.74822,587.986536 446.298277,589.050038 C445.848334,590.11354 445.623366,591.320187 445.623366,592.670017 C445.623366,594.019846 445.848334,595.226494 446.298277,596.289996 C446.74822,597.353497 447.341318,598.25337 448.077589,598.989641 C448.813859,599.725911 449.662603,600.288332 450.623845,600.676919 C451.585087,601.065506 452.597444,601.259797 453.660946,601.259797 Z M493.419358,604.511642 L492.928513,604.511642 C491.987723,605.656952 490.852656,606.638632 489.523279,607.45671 C488.193901,608.274788 486.486188,608.683822 484.400088,608.683822 C482.845739,608.683822 481.383446,608.428176 480.013165,607.916877 C478.642884,607.405578 477.446462,606.699996 476.423864,605.80011 C475.401266,604.900223 474.603651,603.816286 474.030996,602.548264 C473.458342,601.280243 473.172018,599.88953 473.172018,598.376085 C473.172018,596.821736 473.478793,595.420798 474.092352,594.173228 C474.705911,592.925659 475.56488,591.851947 476.669286,590.952061 C477.773692,590.052174 479.072372,589.367044 480.565365,588.896649 C482.058358,588.426254 483.684265,588.19106 485.443133,588.19106 C487.406521,588.19106 489.022202,588.344447 490.290224,588.651227 C491.558245,588.958006 492.601279,589.275007 493.419358,589.602238 L493.419358,588.681904 C493.419358,587.086651 492.785357,585.76752 491.517335,584.72447 C490.249314,583.68142 488.674536,583.159903 486.792956,583.159903 C484.011489,583.159903 481.659549,584.325647 479.737065,586.65717 L473.908285,582.669058 C477.098791,578.660474 481.454993,576.656212 486.977023,576.656212 C491.64007,576.656212 495.198657,577.750375 497.652892,579.938735 C500.107128,582.127095 501.334227,585.368682 501.334227,589.663594 L501.334227,607.702132 L493.419358,607.702132 L493.419358,604.511642 Z M493.419358,595.492373 C492.478568,595.04243 491.507114,594.684526 490.504968,594.418651 C489.502822,594.152775 488.408659,594.019839 487.222445,594.019839 C485.299961,594.019839 483.817216,594.439098 482.774166,595.277629 C481.731116,596.116159 481.209599,597.148967 481.209599,598.376085 C481.209599,599.603203 481.710664,600.584882 482.71281,601.321153 C483.714956,602.057423 484.870475,602.425553 486.1794,602.425553 C487.242902,602.425553 488.224581,602.231262 489.124468,601.842675 C490.024354,601.454088 490.791291,600.942796 491.425302,600.308786 C492.059312,599.674775 492.550152,598.938515 492.897835,598.099985 C493.245519,597.261455 493.419358,596.392259 493.419358,595.492373 Z M512.194164,573.281655 C511.498797,573.281655 510.834118,573.14872 510.200107,572.882844 C509.566097,572.616969 509.013902,572.248839 508.543507,571.778444 C508.073112,571.308049 507.704982,570.76608 507.439107,570.152521 C507.173231,569.538962 507.040295,568.864058 507.040295,568.127787 C507.040295,567.391516 507.173231,566.716612 507.439107,566.103053 C507.704982,565.489494 508.073112,564.947525 508.543507,564.47713 C509.013902,564.006735 509.566097,563.638606 510.200107,563.37273 C510.834118,563.106855 511.498797,562.973919 512.194164,562.973919 C513.625801,562.973919 514.8529,563.474984 515.875498,564.47713 C516.898096,565.479276 517.409387,566.69615 517.409387,568.127787 C517.409387,569.559424 516.898096,570.776298 515.875498,571.778444 C514.8529,572.78059 513.625801,573.281655 512.194164,573.281655 Z M508.206051,607.702132 L508.206051,577.637901 L516.243631,577.637901 L516.243631,607.702132 L508.206051,607.702132 Z M531.153036,581.564658 L531.643881,581.564658 C532.584671,580.051213 533.852673,578.854791 535.447926,577.975357 C537.043179,577.095922 538.863376,576.656212 540.908572,576.656212 C542.790153,576.656212 544.446736,576.962987 545.878374,577.576545 C547.310011,578.190104 548.485981,579.0593 549.406319,580.184157 C550.326657,581.309015 551.022014,582.658824 551.492409,584.233625 C551.962804,585.808426 552.197998,587.557043 552.197998,589.479527 L552.197998,607.702132 L544.160418,607.702132 L544.160418,590.461216 C544.160418,588.293308 543.679804,586.687853 542.718562,585.644803 C541.757319,584.601753 540.356381,584.080236 538.515705,584.080236 C537.411299,584.080236 536.439845,584.31543 535.601315,584.785825 C534.762785,585.25622 534.046977,585.890222 533.45387,586.687848 C532.860763,587.485475 532.410827,588.426251 532.104047,589.510205 C531.797268,590.594158 531.643881,591.749677 531.643881,592.976795 L531.643881,607.702132 L523.6063,607.702132 L523.6063,577.637901 L531.153036,577.637901 L531.153036,581.564658 Z" id="ngSpain" fill="#FD0301" transform="translate(441.849998, 592.363239) rotate(-29.000000) translate(-441.849998, -592.363239) "></path>
            </g>
        </g>
    </g>
</svg>